Coordinates
version=1
nRows=4
nColumns=63
inDegrees=yes

Units are S.I. units (second, meters, Newtons, ...)
If the header above contains a line with 'inDegrees', this indicates whether rotational values are in degrees (yes) or radians (no).

endheader
time	pelvis_tilt	pelvis_list	pelvis_rotation	pelvis_tx	pelvis_ty	pelvis_tz	hip_flexion_r	hip_adduction_r	hip_rotation_r	knee_angle_r	knee_angle_r_beta	ankle_angle_r	subtalar_angle_r	mtp_angle_r	hip_flexion_l	hip_adduction_l	hip_rotation_l	knee_angle_l	knee_angle_l_beta	ankle_angle_l	subtalar_angle_l	mtp_angle_l	L5_S1_Flex_Ext	L5_S1_Lat_Bending	L5_S1_axial_rotation	L4_L5_Flex_Ext	L4_L5_Lat_Bending	L4_L5_axial_rotation	L3_L4_Flex_Ext	L3_L4_Lat_Bending	L3_L4_axial_rotation	L2_L3_Flex_Ext	L2_L3_Lat_Bending	L2_L3_axial_rotation	L1_L2_Flex_Ext	L1_L2_Lat_Bending	L1_L2_axial_rotation	L1_T12_Flex_Ext	L1_T12_Lat_Bending	L1_T12_axial_rotation	Abs_r3	Abs_r2	Abs_r1	Abs_t1	Abs_t2	neck_flexion	neck_bending	neck_rotation	arm_flex_r	arm_add_r	arm_rot_r	elbow_flex_r	pro_sup_r	wrist_flex_r	wrist_dev_r	arm_flex_l	arm_add_l	arm_rot_l	elbow_flex_l	pro_sup_l	wrist_flex_l	wrist_dev_l
      3.01754386	      2.37185457	     -3.87927374	     95.11625278	      0.27678684	      0.81759042	      0.83681602	      8.91866886	      4.28524228	      8.09124819	     27.82579439	      0.48565173	     36.85841808	     -7.64005836	      0.00000000	      6.99777577	     -3.22329177	     -1.84608490	     25.22113191	      0.44019179	     40.28315613	     -5.32590119	      0.00000000	      0.25258766	      0.24830164	      1.25173763	      0.46908054	      0.33024118	      1.32997123	      0.41497626	      0.60372061	      1.32997123	      0.28868243	      0.60372061	      1.09527042	      0.23455290	      0.50633671	      1.01703682	      0.14432859	      0.38461924	      0.93880322	      1.80420837	      2.80883783	      6.96178916	      0.00000000	      0.00000000	     27.99841573	     -2.82913178	    -17.32474495	     63.58238663	    -51.53605889	     15.18164129	    122.42651543	     89.20862521	    -26.37914491	    -11.98050312	     65.17986128	     -5.94272225	      9.32247768	     91.54434636	     88.32239533	    -19.28322176	    -10.22638731
      3.03508772	      2.36965400	     -3.34546467	     94.87994363	      0.27641779	      0.81961017	      0.83626106	      7.96821301	      4.25037829	      8.08236314	     27.16818455	      0.47417427	     36.28658381	     -7.30936344	      0.00000000	      6.12919321	     -3.23566529	     -1.96097724	     24.86660328	      0.43400410	     39.93593596	     -5.31832410	      0.00000000	      0.26085707	      0.28517111	      1.14388214	      0.48443767	      0.37927758	      1.21537477	      0.42856209	      0.69336504	      1.21537477	      0.29813355	      0.69336504	      1.00089687	      0.24223188	      0.58152093	      0.92940424	      0.14905373	      0.44173005	      0.85791160	      1.86327599	      3.22591264	      6.36192927	      0.00000000	      0.00000000	     28.01832562	     -1.03850059	    -15.94385448	     65.20643938	    -52.18969939	     17.88872889	    119.65899437	     89.14883768	    -31.39489981	    -16.43489955	     64.90499958	     -6.39895763	     10.55303251	     88.99378056	     88.31459407	    -22.39493848	     -9.45468848
      3.05263158	      2.35495470	     -2.75410008	     94.67591448	      0.27603621	      0.82186902	      0.83571369	      6.95632662	      4.19427857	      8.02256806	     26.48325280	      0.46221996	     35.73807158	     -6.94273868	      0.00000000	      5.18467202	     -3.22875956	     -2.03182184	     24.45604682	      0.42683854	     39.56195223	     -5.26526559	      0.00000000	      0.25799686	      0.32349831	      1.06851628	      0.47912597	      0.43025275	      1.13529855	      0.42386304	      0.78655378	      1.13529855	      0.29486461	      0.78655378	      0.93495175	      0.23957588	      0.65967775	      0.86816948	      0.14741941	      0.50109888	      0.80138721	      1.84284576	      3.65947755	      5.94276702	      0.00000000	      0.00000000	     27.99153615	      0.57091163	    -14.77287314	     66.82908446	    -52.89107788	     20.14930904	    117.10072697	     89.08061856	    -35.95995261	    -19.84060083	     64.54609376	     -6.79652147	     11.87797833	     86.83916210	     88.23789794	    -24.62155843	     -8.28366123
      3.07017544	      2.27819595	     -2.14373180	     94.53556231	      0.27577549	      0.82425904	      0.83523693	      5.94724106	      4.08040711	      7.94014841	     25.82437459	      0.45072036	     35.23139247	     -6.62519419	      0.00000000	      4.23421395	     -3.16135347	     -1.99381408	     24.04740396	      0.41970638	     39.12960547	     -5.17255929	      0.00000000	      0.24034107	      0.34588881	      1.01615970	      0.44633741	      0.46003212	      1.07966968	      0.39485635	      0.84099405	      1.07966968	      0.27468581	      0.84099405	      0.88913974	      0.22318072	      0.70533646	      0.82562975	      0.13733089	      0.53578177	      0.76211977	      1.71673226	      3.91276340	      5.65157539	      0.00000000	      0.00000000	     27.92026509	      1.46100155	    -15.15209473	     67.92205138	    -53.66569256	     21.37876049	    115.10813416	     89.05087901	    -38.92345287	    -21.75644779	     64.35562192	     -6.96075794	     12.97311635	     84.87113525	     87.96017493	    -24.35106164	     -6.48604175
